Coordinates
nRows=15
nColumns=24

# SIMM Motion File Header:
name Coordinates
datacolumns 24
datarows 15
otherdata 1
range 0.75767000000000007000 0.77167000000000008000
endheader
time	pelvis_tx	pelvis_ty	pelvis_tz	pelvis_tilt	pelvis_list	pelvis_rotation	hip_flexion_r	hip_adduction_r	hip_rotation_r	knee_angle_r	ankle_angle_r	subtalar_angle_r	mtp_angle_r	hip_flexion_l	hip_adduction_l	hip_rotation_l	knee_angle_l	ankle_angle_l	subtalar_angle_l	mtp_angle_l	lumbar_extension	lumbar_bending	lumbar_rotation
      0.75767000000000007000	      1.54584301483297760000	      0.96685204944413605000	     -0.22742364164137452000	     -0.37923460014642846000	     -1.46234405402228140000	      4.87521000696270420000	      1.39533391790451940000	      2.09999857050906870000	      2.23383669157463280000	    -15.33275508323621800000	      9.03674274673756630000	     -0.00000000000006925316	     -0.00000000000004308974	     16.44697971402255400000	     -2.94755545006786780000	     -3.90059555850025760000	    -57.14717529083200300000	      6.29746557551490400000	     -0.00000000000017076793	     -0.00000000000001670773	     -7.31931955967541730000	      2.54268390911919880000	      0.32851167636629647000
      0.75867000000000007000	      1.54730825183891650000	      0.96685431577525238000	     -0.22731257421813278000	     -0.39401389714449392000	     -1.43102456972636790000	      4.82374704227634150000	      1.27209072696976010000	      2.07800034183008190000	      2.25080656582467360000	    -15.25909097234933600000	      9.05433607870482150000	     -0.00000000000006961547	     -0.00000000000004348500	     16.60795753160453400000	     -2.90176379543363660000	     -3.92665167789093460000	    -57.03482980533645000000	      6.40245555514587480000	     -0.00000000000017136822	     -0.00000000000001528682	     -7.31989963412476290000	      2.48836048396889310000	      0.41065009771077354000
      0.75967000000000007000	      1.54877348884485570000	      0.96685658210636871000	     -0.22720150679489107000	     -0.40879319414255938000	     -1.39970508543045450000	      4.77228407758997890000	      1.14884753603500060000	      2.05600211315109550000	      2.26777644007471490000	    -15.18542686146245100000	      9.07192941067207670000	     -0.00000000000006997778	     -0.00000000000004388026	     16.76893534918651300000	     -2.85597214079940500000	     -3.95270779728161200000	    -56.92248431984090500000	      6.50744553477684560000	     -0.00000000000017196851	     -0.00000000000001386591	     -7.32047970857410930000	      2.43403705881858730000	      0.49278851905525062000
      0.76067000000000007000	      1.55023847945115830000	      0.96685315860728449000	     -0.22709115332076593000	     -0.42357035314355790000	     -1.36933590237486790000	      4.72062199830486670000	      1.02635152565534390000	      2.03425300602540160000	      2.28478624768538370000	    -15.11322501782083300000	      9.09627138485944900000	     -0.00000000000007035256	     -0.00000000000004425091	     16.92857423812614900000	     -2.81088314571205980000	     -3.97420604454118060000	    -56.80476494222388300000	      6.60782576333403430000	     -0.00000000000017255551	     -0.00000000000001245523	     -7.32072627268821120000	      2.38083718918191020000	      0.57397241464334381000
      0.76167000000000007000	      1.55170338792424920000	      0.96684783849813327000	     -0.22698103782967965000	     -0.43834679947886745000	     -1.33928348639939030000	      4.66889354748683870000	      0.90410457546072176000	      2.01258693941747160000	      2.30180936641626220000	    -15.04151059659430200000	      9.12286290645352870000	     -0.00000000000007073150	     -0.00000000000004461337	     17.08776681751833600000	     -2.76602837047367700000	     -3.99418500109037830000	    -56.68525426723304200000	      6.70666940819995980000	     -0.00000000000017313808	     -0.00000000000001104795	     -7.32086166669056390000	      2.32801183804977720000	      0.65483813497930865000
      0.76267000000000007000	      1.55316823484773230000	      0.96684084271831727000	     -0.22687116236789590000	     -0.45296829213447054000	     -1.30954063967922420000	      4.61707571889350010000	      0.78192915292706766000	      1.99100211601640910000	      2.31890832658008030000	    -14.97027318425943700000	      9.15142231725396900000	     -0.00000000000007111251	     -0.00000000000004497289	     17.24630986269875500000	     -2.72142424523589280000	     -4.01266006940995630000	    -56.56391125140745400000	      6.80414886603921510000	     -0.00000000000017372279	     -0.00000000000000963352	     -7.32107177514551920000	      2.27557345399455890000	      0.73540341102888884000
      0.76367000000000007000	      1.55463289712239190000	      0.96682881992650693000	     -0.22676200699401977000	     -0.46712492375095443000	     -1.28072650072499190000	      4.56498975697423060000	      0.65996831337631789000	      1.96966102223594850000	      2.33623481104271760000	    -14.90046679859957400000	      9.18588539567349470000	     -0.00000000000007149972	     -0.00000000000004532361	     17.40290430524387900000	     -2.67757206999990500000	     -4.02662347304067760000	    -56.43707121307761600000	      6.89753576279846130000	     -0.00000000000017431389	     -0.00000000000000819765	     -7.32150602695827770000	      2.22429597117008540000	      0.81506735421931520000
      0.76467000000000007000	      1.55609755939705190000	      0.96681679713469659000	     -0.22665285162014362000	     -0.48128155536743839000	     -1.25191236177075950000	      4.51290379505496110000	      0.53800747382556802000	      1.94831992845548800000	      2.35356129550535440000	    -14.83066041293970900000	      9.22034847409302040000	     -0.00000000000007188693	     -0.00000000000004567432	     17.55949874778900000000	     -2.63371989476391730000	     -4.04058687667139970000	    -56.31023117474777700000	      6.99092265955770830000	     -0.00000000000017490500	     -0.00000000000000676177	     -7.32194027877103610000	      2.17301848834561180000	      0.89473129740974167000
      0.76567000000000007000	      1.55756213147622450000	      0.96680074680839168000	     -0.22654434212008737000	     -0.49471035337283409000	     -1.22393494758397650000	      4.46051503798001030000	      0.41585318361536450000	      1.92719278895570350000	      2.37120970054025860000	    -14.76198482407931300000	      9.25776734051366820000	     -0.00000000000007223509	     -0.00000000000004610551	     17.71391518752467300000	     -2.59059768669631210000	     -4.05052528819795120000	    -56.17835161450018000000	      7.08106894950068890000	     -0.00000000000017550435	     -0.00000000000000533299	     -7.32294515256362470000	      2.12282513870991930000	      0.97363223922992359000
      0.76667000000000007000	      1.55902667349023470000	      0.96678335397058868000	     -0.22643604791130442000	     -0.50789654017453423000	     -1.19623644165300940000	      4.40802534918649870000	      0.29363440985200973000	      1.90613696754947770000	      2.38896541243258480000	    -14.69368616748540300000	      9.29617146960135440000	     -0.00000000000007257023	     -0.00000000000004656353	     17.86760562632386100000	     -2.54771880101816660000	     -4.05912203568978210000	    -56.04479221361333400000	      7.17013503717158420000	     -0.00000000000017610645	     -0.00000000000000390656	     -7.32414023368282230000	      2.07299316680382000000	      1.05227884726002440000
      0.76767000000000007000	      1.56049119791595550000	      0.96676222404029100000	     -0.22632842251745217000	     -0.52021041495763864000	     -1.16937611372361180000	      4.35519898093772180000	      0.17100220454286727000	      1.88527343859536020000	      2.40711140267361580000	    -14.62631954252225300000	      9.33501704545968280000	     -0.00000000000007288569	     -0.00000000000004708229	     18.01889555649167100000	     -2.50559654609311800000	     -4.06369150971945010000	    -55.90614502237878000000	      7.25633597629961890000	     -0.00000000000017670320	     -0.00000000000000248579	     -7.32608045938008610000	      2.02426901877428820000	      1.13017775241354230000
      0.76867000000000008000	      1.56195571647891330000	      0.96673984841249516000	     -0.22622102006191011000	     -0.53223351906787686000	     -1.14279517846140500000	      4.30226038620385510000	      0.04823218871846182000	      1.86447400712527880000	      2.42538748569754860000	    -14.55926359476935700000	      9.37400977024156030000	     -0.00000000000007319458	     -0.00000000000004762129	     18.16938531711569000000	     -2.46372650141910250000	     -4.06691855926172700000	    -55.76580190102831800000	      7.34158186591336380000	     -0.00000000000017729816	     -0.00000000000000106690	     -7.32826906660337320000	      1.97591414537027950000	      1.20782742327486510000
      0.76967000000000008000	      1.56342023996811610000	      0.96671608157661160000	     -0.22611390359474209000	     -0.54396861869103719000	     -1.11653991751289630000	      4.24920883615566500000	     -0.07468294097665596800	      1.84374664801226660000	      2.44381073150328690000	    -14.49245161836813600000	      9.41218219320983000000	     -0.00000000000007349332	     -0.00000000000004817978	     18.31901840680792400000	     -2.42214449148739910000	     -4.06862016676278770000	    -55.62358429580400100000	      7.42589404125653370000	     -0.00000000000017788973	      0.00000000000000035177	     -7.33069584973964350000	      1.92799082143490930000	      1.28518203478334070000
      0.77067000000000008000	      1.56488477823605440000	      0.96668814111646451000	     -0.22600764509269616000	     -0.55483970485296263000	     -1.09126167950548440000	      4.19581842016450320000	     -0.19803341228391133000	      1.82323550597046260000	      2.46267546565444030000	    -14.42637155602193900000	      9.44789371073726870000	     -0.00000000000007376163	     -0.00000000000004879672	     18.46608148370481200000	     -2.38142658578263380000	     -4.06574544814019580000	    -55.47574323895808800000	      7.50740507378797520000	     -0.00000000000017847113	      0.00000000000000176977	     -7.33383716061486360000	      1.88136214590545550000	      1.36165146823327280000
      0.77167000000000008000	      1.56634931650399300000	      0.96666020065631741000	     -0.22590138659065023000	     -0.56571079101488808000	     -1.06598344149807220000	      4.14242800417334060000	     -0.32138388359116671000	      1.80272436392865830000	      2.48154019980559370000	    -14.36029149367574200000	      9.48360522826470740000	     -0.00000000000007402993	     -0.00000000000004941366	     18.61314456060170400000	     -2.34070868007786800000	     -4.06287072951760480000	    -55.32790218211217600000	      7.58891610631941660000	     -0.00000000000017905253	      0.00000000000000318777	     -7.33697847149008360000	      1.83473347037600170000	      1.43812090168320510000
